<svg xmlns="http://www.w3.org/2000/svg" xmlns:xlink="http://www.w3.org/1999/xlink" id="Layer_1" x="0px" y="0px" width="371.871px" height="102px" viewBox="0 0 371.871 102" xml:space="preserve"><g>	<g>		<path fill="#3E6FB7" d="M0,100.648V1.237h22.266V43.21l19.7-41.973h21.589l-20.51,44.675l21.995,54.736H42.643l-16.867-44.55   l-3.506,5.644v38.906H0z"></path>		<path fill="#3E6FB7" d="M69.085,100.648L90.271,1.237h24.692l21.05,99.411H115.37l-3.913-21.846H94.184L90,100.648H69.085z    M96.204,66.406h13.089l-6.61-40.132L96.204,66.406z"></path>		<path fill="#3E6FB7" d="M175.41,102c-6.746,0-12.368-1.127-16.867-3.375c-4.499-2.252-7.895-5.646-10.187-10.188   c-2.295-4.542-3.624-10.329-3.979-17.368l19.162-2.946c0.179,4.092,0.651,7.508,1.417,10.25c0.761,2.74,1.933,4.787,3.506,6.135   c1.574,1.35,3.529,2.023,5.871,2.023c2.877,0,4.835-0.816,5.872-2.457c1.032-1.636,1.552-3.518,1.552-5.644   c0-4.175-1.102-7.673-3.305-10.494c-2.203-2.821-5.106-5.667-8.705-8.528l-11.336-8.96c-4.048-3.108-7.354-6.629-9.919-10.557   c-2.562-3.928-3.847-8.755-3.847-14.484c0-8.181,2.631-14.462,7.895-18.84C157.804,2.189,165.022,0,174.198,0   c5.487,0,9.985,0.82,13.492,2.456c3.506,1.636,6.228,3.825,8.162,6.566c1.933,2.742,3.282,5.729,4.049,8.96   c0.763,3.232,1.236,6.442,1.416,9.634l-19.026,2.577c-0.183-3.027-0.472-5.685-0.878-7.976c-0.406-2.288-1.215-4.089-2.43-5.399   c-1.215-1.307-3.035-1.966-5.465-1.966c-2.61,0-4.542,0.882-5.802,2.639c-1.259,1.761-1.889,3.704-1.889,5.831   c0,3.518,0.878,6.402,2.632,8.653c1.753,2.251,4.158,4.601,7.218,7.057l11.065,8.836c4.588,3.602,8.521,7.711,11.809,12.334   c3.283,4.625,4.928,10.33,4.928,17.121c0,4.662-1.172,8.879-3.507,12.643c-2.339,3.763-5.601,6.709-9.784,8.836   C186.003,100.934,181.076,102,175.41,102z"></path>		<path fill="#3E6FB7" d="M214.81,100.648l1.889-99.411h23.613l13.491,62.716L268.24,1.237h22.805l1.889,99.411H276.74   l-1.753-67.379l-13.897,67.379h-13.898l-14.57-67.87l-1.482,67.87H214.81z"></path>		<path fill="#3E6FB7" d="M339.488,102c-8.01,0-14.35-1.312-19.027-3.929c-4.676-2.616-8.027-6.36-10.051-11.229   c-2.023-4.867-3.033-10.695-3.033-17.488V32.288c0-6.79,1.01-12.599,3.033-17.427c2.023-4.828,5.373-8.51,10.051-11.047   s11.018-3.803,19.027-3.803c8.096,0,14.506,1.289,19.227,3.866c4.723,2.577,8.098,6.259,10.121,11.047   c2.025,4.788,3.035,10.574,3.035,17.368v37.064c0,6.793-1.01,12.621-3.035,17.487c-2.023,4.869-5.398,8.613-10.121,11.23   C353.994,100.691,347.583,102,339.488,102z M339.488,87.394c2.877,0,4.992-0.594,6.344-1.779c1.35-1.186,2.246-2.781,2.697-4.787   c0.449-2.002,0.674-4.15,0.674-6.441V27.379c0-2.292-0.229-4.418-0.674-6.384c-0.451-1.966-1.352-3.54-2.697-4.726   c-1.352-1.186-3.463-1.779-6.344-1.779c-2.697,0-4.723,0.593-6.072,1.779s-2.252,2.76-2.697,4.726   c-0.451,1.962-0.674,4.092-0.674,6.384v47.005c0,2.291,0.201,4.439,0.607,6.441c0.404,2.006,1.279,3.604,2.631,4.789   C334.63,86.8,336.699,87.394,339.488,87.394z"></path>	</g></g></svg>